This is my own rip.

General
Unique ID                        : 240532902371268787282432994693245082408 (0xB4F4F3B199BFB7E9AAE9BFC12E889B28)
Format                           : Matroska
Format version                   : Version 4 / Version 2
File size                        : 1.95 GiB
Duration                         : 1h 41mn
Overall bit rate mode            : Variable
Overall bit rate                 : 2 749 Kbps
Encoded date                     : UTC 2010-02-22 21:41:31
Writing application              : mkvmerge v5.9.0 ('On The Loose') built on Dec  9 2012 15:37:01
Writing library                  : libebml v1.3.0 + libmatroska v1.4.0

Video
ID                               : 1
Format                           : AVC
Format/Info                      : Advanced Video Codec
Format profile                   : High@L4.1
Format settings, CABAC           : Yes
Format settings, ReFrames        : 7 frames
Codec ID                         : V_MPEG4/ISO/AVC
Duration                         : 1h 41mn
Bit rate mode                    : Variable
Bit rate                         : 2 310 Kbps
Maximum bit rate                 : 9.0 Mbps
Width                            : 1 280 pixels
Height                           : 696 pixels
Display aspect ratio             : 16:9
Frame rate                       : 23.976 fps
Color space                      : YUV
Chroma subsampling               : 4:2:0
Bit depth                        : 8 bits
Scan type                        : Progressive
Bits/(Pixel*Frame)               : 0.108
Stream size                      : 1.64 GiB (84%)
Writing library                  : x264 core 129 r2230 1cffe9f
Language                         : English
Default                          : Yes
Forced                           : No

Audio
ID                               : 2
Format                           : AC-3
Format/Info                      : Audio Coding 3
Mode extension                   : CM (complete main)
Codec ID                         : A_AC3
Duration                         : 1h 41mn
Bit rate mode                    : Constant
Bit rate                         : 384 Kbps
Channel(s)                       : 2 channels
Channel positions                : Front: L R
Sampling rate                    : 48.0 KHz
Bit depth                        : 16 bits
Compression mode                 : Lossy
Stream size                      : 278 MiB (14%)
Language                         : English
Default                          : Yes
Forced                           : No

Menu
00:00:00.000                     : en:Opening Credits
00:06:58.251                     : en:"Gwen Do You Get Off?"
00:15:40.106                     : en:Homeward Bound
00:20:26.225                     : en:Off to a Good Start
00:29:59.089                     : en:Caught in a Trap
00:40:21.502                     : en:Davis Strikes Back
00:44:59.447                     : en:Divine Intervention
00:50:16.055                     : en:Married Life
00:58:54.114                     : en:Kicking Architectural Butt
01:04:14.809                     : en:Heating up an Old Flame
01:10:08.162                     : en:Righting a Wrong
01:15:41.829                     : en:Family Gathering
01:23:33.550                     : en:An Irish Lullaby
01:28:10.535                     : en:Davis Stories
01:33:18.051                     : en:The Truth at Last
01:37:45.443                     : en:End Credits